<mxfile host="app.diagrams.net" modified="2023-10-27T18:28:56.999Z" agent="Mozilla/5.0 (Windows NT 10.0; Win64; x64) AppleWebKit/537.36 (KHTML, like Gecko) Chrome/118.0.0.0 Safari/537.36" etag="zsBJmfwOYAvCOUVl2mQy" version="22.0.8" type="device">
  <diagram name="Página-1" id="9Q3r8Wk0-lh1teVZr32K">
    <mxGraphModel dx="1737" dy="1677" grid="1" gridSize="10" guides="1" tooltips="1" connect="1" arrows="1" fold="1" page="1" pageScale="1" pageWidth="827" pageHeight="1169" math="0" shadow="0">
      <root>
        <mxCell id="0" />
        <mxCell id="1" parent="0" />
        <mxCell id="wEqpazZtr3Mc7dN9a1HU-3" value="&amp;lt;&amp;lt;Root&amp;gt;&amp;gt;&lt;br&gt;&amp;lt;&amp;lt;Entity&amp;gt;&amp;gt;&lt;br&gt;Edifício" style="rounded=0;whiteSpace=wrap;html=1;" parent="1" vertex="1">
          <mxGeometry x="-160.57" y="-122.01" width="120" height="60" as="geometry" />
        </mxCell>
        <mxCell id="wEqpazZtr3Mc7dN9a1HU-5" value="1" style="text;html=1;align=center;verticalAlign=middle;resizable=0;points=[];autosize=1;strokeColor=none;fillColor=none;" parent="1" vertex="1">
          <mxGeometry x="-130.09000000000003" y="-62.010000000000005" width="30" height="30" as="geometry" />
        </mxCell>
        <mxCell id="wEqpazZtr3Mc7dN9a1HU-6" value="0..1" style="text;html=1;align=center;verticalAlign=middle;resizable=0;points=[];autosize=1;strokeColor=none;fillColor=none;" parent="1" vertex="1">
          <mxGeometry x="19.520000000000028" y="51.86" width="40" height="30" as="geometry" />
        </mxCell>
        <mxCell id="wEqpazZtr3Mc7dN9a1HU-9" value="&amp;lt;&amp;lt;Root&amp;gt;&amp;gt;&lt;br&gt;&amp;lt;&amp;lt;Entity&amp;gt;&amp;gt;&lt;br&gt;Elevador" style="rounded=0;whiteSpace=wrap;html=1;" parent="1" vertex="1">
          <mxGeometry x="19.520000000000024" y="80" width="120" height="60" as="geometry" />
        </mxCell>
        <mxCell id="wEqpazZtr3Mc7dN9a1HU-10" value="" style="endArrow=classic;html=1;rounded=0;entryX=0.5;entryY=0;entryDx=0;entryDy=0;exitX=0.5;exitY=1;exitDx=0;exitDy=0;" parent="1" source="wEqpazZtr3Mc7dN9a1HU-3" target="wEqpazZtr3Mc7dN9a1HU-9" edge="1">
          <mxGeometry width="50" height="50" relative="1" as="geometry">
            <mxPoint x="230" y="170" as="sourcePoint" />
            <mxPoint x="490" y="160" as="targetPoint" />
          </mxGeometry>
        </mxCell>
        <mxCell id="wEqpazZtr3Mc7dN9a1HU-11" value="tem" style="edgeLabel;html=1;align=center;verticalAlign=middle;resizable=0;points=[];labelBackgroundColor=none;" parent="wEqpazZtr3Mc7dN9a1HU-10" vertex="1" connectable="0">
          <mxGeometry x="-0.0876" y="2" relative="1" as="geometry">
            <mxPoint x="29" y="12" as="offset" />
          </mxGeometry>
        </mxCell>
        <mxCell id="wEqpazZtr3Mc7dN9a1HU-12" value="&amp;lt;&amp;lt;Value Object&amp;gt;&amp;gt;&lt;br style=&quot;border-color: var(--border-color);&quot;&gt;Descrição do Edifício" style="rounded=0;whiteSpace=wrap;html=1;" parent="1" vertex="1">
          <mxGeometry x="-359.1" y="-131.95" width="120" height="60" as="geometry" />
        </mxCell>
        <mxCell id="wEqpazZtr3Mc7dN9a1HU-13" value="" style="endArrow=diamondThin;endFill=1;endSize=24;html=1;rounded=0;exitX=-0.029;exitY=0.384;exitDx=0;exitDy=0;entryX=0.992;entryY=0.536;entryDx=0;entryDy=0;exitPerimeter=0;entryPerimeter=0;" parent="1" source="wEqpazZtr3Mc7dN9a1HU-3" target="wEqpazZtr3Mc7dN9a1HU-12" edge="1">
          <mxGeometry width="160" relative="1" as="geometry">
            <mxPoint x="399.42999999999995" y="147.99" as="sourcePoint" />
            <mxPoint x="529.43" y="32.989999999999995" as="targetPoint" />
          </mxGeometry>
        </mxCell>
        <mxCell id="wEqpazZtr3Mc7dN9a1HU-14" value="&amp;lt;&amp;lt;Value Object&amp;gt;&amp;gt;&lt;br style=&quot;border-color: var(--border-color);&quot;&gt;Id Elevador" style="rounded=0;whiteSpace=wrap;html=1;" parent="1" vertex="1">
          <mxGeometry x="-179.01" y="80" width="120" height="60" as="geometry" />
        </mxCell>
        <mxCell id="wEqpazZtr3Mc7dN9a1HU-15" value="" style="endArrow=diamondThin;endFill=1;endSize=24;html=1;rounded=0;exitX=0;exitY=0.5;exitDx=0;exitDy=0;entryX=1;entryY=0.5;entryDx=0;entryDy=0;" parent="1" source="wEqpazZtr3Mc7dN9a1HU-9" target="wEqpazZtr3Mc7dN9a1HU-14" edge="1">
          <mxGeometry width="160" relative="1" as="geometry">
            <mxPoint x="140" y="20" as="sourcePoint" />
            <mxPoint x="230" y="-30" as="targetPoint" />
          </mxGeometry>
        </mxCell>
        <mxCell id="wEqpazZtr3Mc7dN9a1HU-19" value="&amp;lt;&amp;lt;Value Object&amp;gt;&amp;gt;&lt;br style=&quot;border-color: var(--border-color);&quot;&gt;Nome" style="rounded=0;whiteSpace=wrap;html=1;" parent="1" vertex="1">
          <mxGeometry x="-310.09000000000003" y="-221.95" width="120" height="60" as="geometry" />
        </mxCell>
        <mxCell id="wEqpazZtr3Mc7dN9a1HU-20" value="" style="endArrow=diamondThin;endFill=1;endSize=24;html=1;rounded=0;entryX=0.5;entryY=1;entryDx=0;entryDy=0;exitX=0;exitY=0;exitDx=0;exitDy=0;" parent="1" source="wEqpazZtr3Mc7dN9a1HU-3" target="wEqpazZtr3Mc7dN9a1HU-19" edge="1">
          <mxGeometry width="160" relative="1" as="geometry">
            <mxPoint x="-100.09" y="-121.95" as="sourcePoint" />
            <mxPoint x="-140.09" y="-141.95" as="targetPoint" />
            <Array as="points" />
          </mxGeometry>
        </mxCell>
        <mxCell id="wEqpazZtr3Mc7dN9a1HU-21" value="&amp;lt;&amp;lt;Value Object&amp;gt;&amp;gt;&lt;br style=&quot;border-color: var(--border-color);&quot;&gt;Código" style="rounded=0;whiteSpace=wrap;html=1;" parent="1" vertex="1">
          <mxGeometry x="-160.57" y="-221.95" width="120" height="60" as="geometry" />
        </mxCell>
        <mxCell id="wEqpazZtr3Mc7dN9a1HU-22" value="" style="endArrow=diamondThin;endFill=1;endSize=24;html=1;rounded=0;entryX=0.5;entryY=1;entryDx=0;entryDy=0;exitX=0.5;exitY=0;exitDx=0;exitDy=0;" parent="1" source="wEqpazZtr3Mc7dN9a1HU-3" target="wEqpazZtr3Mc7dN9a1HU-21" edge="1">
          <mxGeometry width="160" relative="1" as="geometry">
            <mxPoint x="-90.09" y="-111.95" as="sourcePoint" />
            <mxPoint x="-90.09" y="-147.95" as="targetPoint" />
          </mxGeometry>
        </mxCell>
        <mxCell id="wEqpazZtr3Mc7dN9a1HU-23" value="&amp;lt;&amp;lt;Value Object&amp;gt;&amp;gt;&lt;br style=&quot;border-color: var(--border-color);&quot;&gt;Dimensão" style="rounded=0;whiteSpace=wrap;html=1;" parent="1" vertex="1">
          <mxGeometry x="-30.090000000000003" y="-191.95" width="120" height="60" as="geometry" />
        </mxCell>
        <mxCell id="wEqpazZtr3Mc7dN9a1HU-24" value="" style="endArrow=diamondThin;endFill=1;endSize=24;html=1;rounded=0;entryX=0.5;entryY=1;entryDx=0;entryDy=0;exitX=1;exitY=0.5;exitDx=0;exitDy=0;" parent="1" source="wEqpazZtr3Mc7dN9a1HU-3" target="wEqpazZtr3Mc7dN9a1HU-23" edge="1">
          <mxGeometry width="160" relative="1" as="geometry">
            <mxPoint x="-90.09" y="-111.95" as="sourcePoint" />
            <mxPoint x="-95.09" y="-207.95" as="targetPoint" />
            <Array as="points">
              <mxPoint x="29.909999999999997" y="-91.95" />
            </Array>
          </mxGeometry>
        </mxCell>
        <mxCell id="wEqpazZtr3Mc7dN9a1HU-36" value="" style="shape=stencil(nZ3ZsiTHjUS/hq9lsS/PmtF/0EwtkSYNm9akZvn7iRiqluuedaLvvIkt4FZmZAQCcACOH/Kffvvpx1+//JDCb79/+/r3L//1819+/+mH/G8/pPTzLz99+fbz7+t//ZD//Yf8p79+/fblb9++/vOXv/zx37/+uCX3//qPr/+5/8J//6EX5y2mrZXC//zxL/3W+//9w5//kP/Hz7+8yo/bUPl//cM7+RZVfqJ8niI/WT62D/LrHzLIP37+KZ/o7/dbHSJfBsonfZ4eQb7dZhH52VC+hQ/y85YKysvzzFutIF9vM4r8oPett/rx78dwS7Qh6v3/flGo9AXKbXRVmLRFy63mjwrxlmlNyy12VcBDkPUQxHSL9A75Vroq/Os7vlOI8g75FmhZ0/2JXxQKbYx0K1EVBr10ugX50uWWaWuvRQyq0Ok7rM/08Sw8N8u1wmMjvCjgaXtstYdC4+OzNnNUBXqHdVrkFTral3krU+UH2K9lrutH+WUw4Xwucx1VfsLfH7cq32ze/+WNfPoon8ItgH3p919/kW/wAfqtffzCKd4SvG/XXb3k6X27rmdaBxPk290aPuTz/cJ6I9/kfcv9F9/I567yE+WjrH+9f/FL+ar7cz8hrGfV62+tWIXvVW/5o2Xc9yWsZ70Fed95y7Dfyv103OXz44S+kZfnz/EW4fnL/aZ4yCfcz0X3z5Kn+zvrdZ/Z6uZbl/ddKwDrk/Xuy/X+F97IZ5Ff+wHe1+6lzPsh2fsOvJaSve+8Xwpv5OvHv1/WfoDnT/p9S0R/8XGvv8iTP7p2y8fnL4n9J3VHS2bX49blfcvdQr6RF/e7rBON8mL/S7vfUG/ki8j3+7+8kc8iP+478I283C9l4veNag9rwPMe717VQ379C9iTcLfGL/IDnifofVHX/QLrGfS+rhnv33Dr8jwF/Y1w//WH/LLAsD+D3l/1ESC8kRd7W9t9x76Tl7/fMRoI9+jrIb/sCdjbcL99HvJsT4KGn43vlyX/cf3b2j/4/HI/LnkKZoKel7YsJP799HF9Wj6sp4SHraA/87CuD/mK9vNKnvxbl2/3HfKd8v3wvVye8AiXH/cd/p3yE/3VJd9VnvwH+749oP8W7tbgIR/RH7P92RP6q0Hv0yU/+DwKHHTan0X+fjmsZ00qP1le1rPeGj5/k+dp9xX7Pvu85Ml/COqf9473e1D/qo97BPHuvpPnn7eA96Pcv0u+w/tGjV9GQHsS72jUQz7ifWT+z5JHTOF+mh7yCff/2u0C9+V7hPJGXu6XkdHfTvfT+pAv+L2S+hujon+SFV1b8hRfZz0v4wEYvpGX+GvJU/xi0NroeF+veO2jfRjjFjgerCpfMf7V7zvwPFb1h8e8Fdj/VZHBJU/4eNN4aob7ir2RL0XlK/79bvID8ZbwcT1nvAPsb+TF/i95iu+67v8lT+dlqH8+HxHWG3l9noT2edyt2Ys84T9T8YolP2F/PnbLQz5jPLKs61D5woim5D+WAl1gGwKtqkAe/QZZ5RcKh1R2B8zC+Hu8u7QvCpUU0h20fVEgrzgmDXuWAqaVstqtWe834TuFVlUBA+FiJ/8QmRcNxSZDO7HeP9OLAu3VpSBg62wIfsWm1nQpYB6kaUpgKWAOoSv+vhTwPHQFkJYCBdBxWIKsoYe/FHS3Nrxi49QYcSvQKs37Z3pRoLTG9pLtw6FCNDPW0K3bOJKtEiqki2U9KIzPPZLl1E4Kxe62o0IrpkBgpOU2twLspaXge4ng+50fsBNH/tdSUOv9yDhfK3T1CGfHCGFf0VMVKGRcCmoq+z0KvlaYCsLOjhfKvkWzKhRCtS0MXwqUJl8K3RTQz44auC+FTr8QL36BPLfsJ67fJmzvbFj7ZF87Zw0GtwJs75zNagz0JrNfigPzs0tByyEG+nv5AXe+KNA9nS0DthUoY9PMtg7eS+1+778okAuXu524gUmDpdCSKlBWIg9Nay0FglGWgl7s8440XCtMc+EelUjvFNRUToyUikGzSyGBv7QU9Npl7K7Eu1F5UaBkxjN39KpA75DMGE90f0q2O26i5VsKuvkmJnxKse09EaEtRSuEtgKlYOv9vnlVoHeoChqcFeYwBUIlmoVxR4Xh70AK/b43v19Bw4GDwrgDR9+voL7GYVmHgQ0HhXWCP/fhpqZ/zgrDNx8oVAPwzwrqJB4UoqaIzwoXm48Vxud+weNp3ho7ienLSgrZrt2jQv3U9q7l7rt8v0IxY4wK9bO/cGmXSKFdWT5WcOuNCl3Lfc8K6qwfFIYhJ0cFxWYOCvOTprI6qMYKLdxBie9XuDAzpGB1E4dbdKeJ/TuA39qSItf7Yodrt125DuScLIVmq0RxXCsGF7ELtxT8wxH626ot68B0ZGtmjAdiM0vBQxpKOLRuoeXACoSloG4oB01tmJnpWFPQrOZ/ctF/m4aSdyxf7la2sANwKsMMWge1MQGqI7VCpQ1TUKIi2Us3zoR4eNzuYdS1gtXSHbDKpTDtkSIVt1p2bCO6tKxVy6Emp7e7Q8AV87e9metQMY5bCuqcFMyQ9W5RVsET1x2QKpzDGpqknxlhu36V1aFVGsEc3YTx9FIYQRXIhRvRPON0//bXCskSRxG3xlKQ1OaMmBIZ2R4pIHw6in24gMVsS6Fbdpbg01H1Yl8KlH9YCnJEx8D629EsoT7wUhzmka1/6fQLXY3x/hOkMBR63A9JLz0sqV6xyHEv4lAFygMNy3CsT0nezNoIcrEPPqLTwJyRMZe1NrO+Q8JK9BltlSLiGjsTLbUrAbM0007cMjwE9m8rZNU6VC2y7ZyUJw3E7qe5cJ2x+2kF+L1hw8os6uiuO4kqRnZiVkrcCiZS9xVoNWhUQzetJ64nvLLWNa5VUxGr+p45yhcFOtPPvNJDIWDdzrTCjuXUEe69UywfX7oxjP3MmDwUOrYSbKdTak8bJrSfbu1DoWIOZVpz6I4o6BeGledmNMZzaH3iirvISdzhhRT0HqzGUDd0BZsUxz0jnrvCoeT5Ce0/FAbvpan3dOWM37QEXuXCgifw/lAomMvaoaq8dMaKkB0MS2F4QvdnWqdejVh59cTcHgqBLd/UrbF7HfgXBJspA33vrfBxWUvn+8ECvw2d8yrJmS4F66unYTMlY8S+FMQz3h02vJekpWKnYfil9Rci9t5OS00VbjrxVcrc9bYVPj7SbqPil5bsQD4Y42mNYw1ThH6AlkLkZZV7Ole2S9brmrksbA5Nr+3mOrbe4mDljAntaaULOWElwjNX/FCI7GsMhYvyYfMNrejOj8Tnu1tU/NY0+ZEs05S4Zny7DtI0yk3K02Kg1LEyZ1p6bReu0i80TUKmhnW803gT0sHXqFpos2uN6TxUTRylgtQS04LXXY3Nzrr4S8/y8HcK+qUP3kzRe3o3QJJCVlc6cT/KUpAGzxT4fsjq8+0eFfqFpNY7MoiwFAT92RV+9NJJ0zqbRYUOkFXbRcaMNxLjNAK0NYJ+h9j5iFpjTTzcD8EYLBqmE8a8B8MPhYrR7rALZSmQMR7mGcfCuMbQO25TXhBs19WVjlxcvRQE0X1ShbxT0L3EuMbGeoQxIqEnMKx+KTIQMqxCKkbkLBjW9L8UqHhug0NVFehMbyQxqQJdWSPbdwjYVzSSfenARBlJYezIEfuw1vClQOV5w+hTJmZ1Nvok+Cy6V0te8654GPq0XALePt2rQTijM6x3DMvb+9D8/UA4eicelJqJCsO7cYNwZWFvBkYjaNqrGsiOlby96npyK2EvBkJxzi7r+3Z+/my9rmgmelJnm+GhbtwL3DrcLQff0HHuQR2Fhq3GS16w0oY+apvqo3Jyrw3jIkBIfMnLfqtMddONKwCvpiUvZp3ju9bUInLS4Nk5/pQn8KJV447A274VLaYpCM+3rFxGHJ4uefFXCqaHN5IoXB+YEm/W61qwdXXJS6kbIy/NXMCMjkSdWsGemQrIcMiM2fBdaSTBB56X2rUgOGGQWZtCIgkrY2tVkCbhBV+LcUnh96rWvxLRP65Zv29ELLsmzddGLquyXuyI+3kXPgq3GK+PFZFERDfL1PPCyEmZWhAbcP8UiwYCtz4b1WTArFGxXtqA9rw07Zhil7U05V4IeJ9uqLeqPLViW7ljQES9WBgQEGwohk4E9MeK5SoD150b1xZ79MX8mcCt7Ulx5cCl+UmTUZz4KVFBsaN8Nnnujxi6Pgf5rPuB5LOlAo7y6TPPk4fGI/y9dhOMPT/Y/82EZvsH9nNu6j8EtLdLPqs8nZdcNbnP53fJR7M/9L5FyTQDxl9LXvxzts85GzcmUg09mfde7hfqu0qau40IUG0mQL2PcP9EhS4j1iXkqGlVLsjKxkUTuaMwaKleRCqmCy5TxLLS1Hj5QJU31Z9h/yfZ+U1YPZws3mF/LFl5QUJ8I3leBO1DsooKBtd3SkP9Sfq+yZrr06k1WHDsjPjS5ipReUpwpKqJpoz1gs41mrktuOr9lTF+3+GipAcxBeTcMgzNJutFzUyN6VyjvB+sOZZrU3Y4p++LzejWrcvx4HP5nvLYWZ6NSxOL+Xc4p/E47jejwC5sH5LH+9QfesEdiu2hySpsC1OZXsTvFE89zf2LPL2v3UcF/ZN9HSaVp/1g91fBJoFkNf8F7zvnrizMxhDUf2Dq3BSUL6Xgft5pQsWjKD6NF/geUp9aVW1l6n5rqWaqzmj3L6cAo8XL/cSsIvu5n4hVZD90tIdbPqs8ve/QqpvOLEPD8Xby9/aoC8XDKS0czZ/piHddyeNIAOvJb6fRG93w9sP3iirP6z8U/6e6k71/ymf+/lR/6fD8tv8P62PcXx3vry1v+ZHD8+j+PNiHoPv/sD+nPs9h/0vvw/F8DbUnh/OrNcxH4iV7X97PTe0JUmNenC/yBy7P4+Hva/6I8Mb/h7xyTaM/4Pu58N+fGr8U3g9T/fmC/rbTXhWOF4y7uGAlRLJO/YO/alysTNXvpFpcfZisaCcjfuvc7PnE2SX3F7c5PMP7F3n2hy0eRP8w2awB9B+2f67yZN8uZgdwfJfUvmWmYs3qH2asi3n+uZd4ltbT+qkz82hl35+UX97HQ+NrjPeLzfJA+5Asf8pU0Klo9W3i8+KzQrC+ZbvXhp/QfqhaT8IdAc9JK9+J5zRd/8T4gM+CwXxBstb0xHiIUcMl5NpK1smeeHRGVzyEqVs3/qb5Sur5eE5ue8EzWb5ZPpTe1/wrrlJLVhHP+dM0bYoY1v9mq7+KzFwW/H2RGi3q/oxor3K0klDsesjGfhVxP2x8XvNTdF9nmzXD+dZsBJKH/IgVFfLgumz2MDBxXNV+h4DlrDu/o++L1N3N84lUb3OVn8L8izFHBhyFsfNrmg8l/+0qf4f5o4v8INIbXuQfkXr8Ir95kLf8Kcpf5GcP8pb/RfmL/DLVU13lr1E+a3NAwPO+8+/2/FRfURRPDogPX9UPkH9VjCqSz8uuf9D1TLA/i3WM8Pm9qt/AUWkX9SHITtjV3+BGomJENTzqoQy351ifMC/sLb2vtUOyfa426yQg9U+1WVF8v9SoeGNAzo9qjE2c765WfxIxX1aNuZGp+nfLrT4P+T+7/k39AcovV+tMSFjvXb2tDNlBqs+m5NEQhm9zvrVa2yfHU82Y97kbqxllMNdP7vpPlafv1YzEL/Ooiqz3XWaaKZt1WHA/N6OK4PxaM7Ztxpea5aML4o27Ptnqgak+tut9UbAeZskLPlOxR6UNxU94JMGuD7d6bKofNryuor3twbr6sR64+2w7ZlmK1qKP8WC3AcUNOTS6zeJpeJ92Y1dpmD/t1uvIo4O7za3uaE+6xQsHyjSrB+vMo9XU/+z8/E3vC6ah2/01MhsI/bFus2AGcjf1cTG6nZ5nan3FQPxz9zfpKHmqlxuGV/Oo92HnZWJ8PXzuCp73ETW+m1ifNqw+fOL9PrI14QUEKEfWBPlSoIqJ4R4Nl0QOK1mMgfszq2LcMeKlPaoGGUuBupCGTYCKEdOQoymZe2TcbtODRVXADtBuDZ08BG3P6KqqQKZxGGXl7pOll7ZccCyYDBhTD0MsaI2GsX7EiunFGdT9iA3t9VIQfD/yaJrpDRN8IziH2VJASgErIVoKyO+SbLfy/NWZ7EsPRPE26Zm14yPfUVazGnmE5sxGvMCB5TTg75nqe6cgU2R36MQK8h12bMMcZlJrlXjO9J5GJcWqfET3cCnJDvDk+umj6Hko12ZHFYXKX7rphZsOlDNNI6KDCzY9xdGxBm92o6fgkSib9GyqAmUhpnk96UDcNhT2zIyjzaF9mDmcaNWUBYeRhGmVWjmdCJLE8mWuZX4SST8UMhYnPCd1PBSY2mHa6IGN1/MjyT29FOgGmja1KDdMcE5LIGWu6NkKglgMhOyWgqTkNqjOvyAnblNhkZmZmhQqPIA9hqB7o3Ce8OInjptJC4/ziQtLlqlwKc1WkFKaiv7PnIrlln5i0JNkQDkwezqJ2fFTC1xfuf/K2ecqN8T4Caqcwb+g3DuSyUkI+hzy8NZsyDs0BLUumAw5SndLVnmi85zKCFN55M+mSRNcIjCzpxXqtchkcnZBNIZSN4e+QCuZGZIMC2sMtm0qUCkmreyHdo2OG5ffTYPz9mh5+nDduEMZQJg2DLNN5qxsNh2cWxK3hyUQUWR+u3Yx/52KBvZEUVHImCV2P3TjakzEJp5uL2wEzJfuB6q3YoXhPNBzxwOCjHVMTc2s5r4PDuSsF6cz+DOtWGLDUwfWM6O7pnTN9NHrDGxMo7AfB0pWi48HD0uewaZ5H2Ia8zVGQU9g2IUyeKrvBjYEdGyM5tiE69HQ8g2LOAb3bYyuuP4YTDDfFFUbA8PdYfPXNpfbgbffFKgXYE8GECyUt/dzI7woIA2/D6iKuJeGD7iNDFYmmyabGD+1Bq+ZGIYLmhGbiUGyq2njyHFl52GbNgbtdfAFV4FvwnqbJ4I0Xd3mfrGz3q2OYlPOE/FWs1mvFSs9ndlrVl4lH+3d8BbtxqA3D2RX2eZNNQyod3asqQKlB/Z8HVHgQcN7gk9VBQLJerQjyh0jyzvSgTwdS+a7lZBsdl3KEU8bNTN4otW0Lz1OWV81AkxD18zR3d448XB1G+7E42db08BvMgbc2sUoMkIR9tyvpAqJ3qGYmZmIYzcrNnvStV8rZJu5y1fWnr9mM+TICFxOeCPn5HKGHDLMXU2pw5KPqzl4hGtcTtojhctZfgcFnxaIClfzCA8KPvEQFa5mKh4UfGojKlzNhTwo+ORJVLiabXlQ8OmZqHA1n/Og8MlfuJoxelDwKaaocDUn9aDgk1hR4WrW60HBTeVBwefVosLVRNyDghLVhUPpso31/Q4NJbc7a2ja/KRh84+/Q8NHLNNSXQ5xRoWrMdEHhc/Zy8tR1weFz+3Ay3HdB4XPGafLkeNUq3s51Pyg4GPTKUt9OZid0hx79Lu9A7kDl8PlCXQtVmD6HJXyTkFHN06mKPQxoBMR/xKM83oi9JAtzXHw47KxahyGaecr/wF54zyCnQhjZWusmzzFMBsz73aP6aVtXMZz5tM7BfXYB564XO0XBlZiZev+fGaVrxWs1msO5kcrxj/OMFbO5sdx5JSNAekwPDgnG7w7mOPQ/YeBcX62CqDJ8ypz1HKbOZDWIgeL8wfWI2RzB2ZH25quxhOT5UuWY3uWZVwrDHNpeEjnswrkRYFQqWSDIGZnNqdmwRzT93g78XPE37VCNVPJqctkBfnPjNW1QrlYVtpLySiQJ0+eS9bjeVJwlPaooOfhoGDDXc4KavkOCuGTL+3MG1uBqa/02u3MfWUp5HkkS3EjgHUhNhZ3HuhSurYHHQaCR4exGl4oS0HRcp4gHqtdKA3TftHKk2djzinjKJwNZ2MvBZ0gzlWu0VgsNpZNj5TN/am8Sh5UVyaWSfalK9ql6JdiQW8mGlXe5NrHaPOXJg+tjZa6nMwmGH3keOGRsnZ+DtPFDO/PnNM2dCZzcb+dBaY3MTaIPdiLsHtNgM/E7U52chInprSUdDJ9rrFx7PQgyuv6RG6X0+kHk+kUHBFkuvWq1YuHjGu1id4cTFo39phYmlIUjBmD6frtecbh74srMjrC9VlzfIOdo6w15M80+xt5XR8e1Wrd/DvJDlbU2JhGwaKXpPt/d+sQfYoiWyMzHaV6FCPhOINo06ISVlBGPS+DS6GiXvaDxx8EY+Pj3Eq4GAZP3rixpXae3x00XO48QtAupM4+Y1D2gt4wwAla4de5XTTofusVIYugxXSdC8Ct9GFPjcfn1+lbTJ8VjF2S75eg9rkzHX3QPoLOBS5Bz2NjhNNKpdrE+8jlebyay3csJ/PnZ3vr8tzea+vZuGYj2HSyiv5YsG7mgvYnqP1vTMcX1LFvCbFZm+fZ4mE/y3lZ8mRvgzrpLWBkYtMMKqf8g/qHdWDUYPandmzkDBeV4WwftLu9YvhpbNaHUnVjm6jlsP+12J6LKe1+2clOfB6BATc/Ct931l5A+Q+r3akB/Y2o571MBknUnpfB9LDGTtGRXsDZ1tvB/5H9U7h7LirgXgruZ2MPLTyeIGpKthzoFtV+lgN9n00P4PglKdxZmF4s6fpk3g82bSAPRkc1vsudkXm1n7nxuBmbJsFFh9Zsn5muP9v7sv+TjY2G7xcrsMqRs5E2fYLtQzF2zENO2CaVTx7PZ3PHeZyrlawltg9V0cc9v4XolTQ/kCqPp1R7tSNoKnDTgornvJE38oIPHMbH+PSbhP6Pt+4yXZVN6zrQc3WNlw90apYBipzKtlKQJU/+j7H7R/afrU0scuWpdbpFTkhZO2A84O8WIMXDhWce0GFAfAyay4k8kXZzexjLBMXAMRqlAweRezK6PFJGqxWNpDFmZr03VqOYsU8nWt3I/hP04bLtDI5Uow1W3BQnpGBM1ZFHs20yEK28wiaxpSDoUeQeyJ1pyaqAiZNqSTieRlEV35mc1GiWw+bP3DTBPNAcLXnpDRkYDsSu0zYHNsbG7tPG8TB3ZUPq2IO6rZtOf8BpCMPZrtBWGLtUx3bpaI0tDEds66/yuN+sUeAs/6npM1P9s45ESHsaUVJ5nkaRbP15GoUkiDu2OVzK8/va85ymL9k0osP62H7m9Ym63/D8TsMrOVk9NZXcMTw/y6//8euPv//0x3/89ed//OO33799/fuX1///r1+/ffnbt6///OUvj3/67acff/2y/ut/AQ==);lineShape=1;" parent="1" vertex="1">
          <mxGeometry x="-381.39458619104255" y="-259.9953081453463" width="524.7705764807213" height="230.84200853982588" as="geometry" />
        </mxCell>
        <mxCell id="xoQxYvgc1eyN9p1Y89sl-6" value="&amp;lt;&amp;lt;Value Object&amp;gt;&amp;gt;&lt;br style=&quot;border-color: var(--border-color);&quot;&gt;Marca do elevador&amp;nbsp;" style="rounded=0;whiteSpace=wrap;html=1;" parent="1" vertex="1">
          <mxGeometry x="-179.00999999999996" y="160" width="120" height="60" as="geometry" />
        </mxCell>
        <mxCell id="xoQxYvgc1eyN9p1Y89sl-7" value="&amp;lt;&amp;lt;Value Object&amp;gt;&amp;gt;&lt;br style=&quot;border-color: var(--border-color);&quot;&gt;Descrição do elevador" style="rounded=0;whiteSpace=wrap;html=1;" parent="1" vertex="1">
          <mxGeometry x="139.51999999999998" y="160.00000000000006" width="120" height="60" as="geometry" />
        </mxCell>
        <mxCell id="xoQxYvgc1eyN9p1Y89sl-8" value="&amp;lt;&amp;lt;Value Object&amp;gt;&amp;gt;&lt;br style=&quot;border-color: var(--border-color);&quot;&gt;Modelo" style="rounded=0;whiteSpace=wrap;html=1;" parent="1" vertex="1">
          <mxGeometry x="-110" y="260" width="120" height="60" as="geometry" />
        </mxCell>
        <mxCell id="xoQxYvgc1eyN9p1Y89sl-9" value="&amp;lt;&amp;lt;Value Object&amp;gt;&amp;gt;&lt;br style=&quot;border-color: var(--border-color);&quot;&gt;Número de série do elevador" style="rounded=0;whiteSpace=wrap;html=1;" parent="1" vertex="1">
          <mxGeometry x="69.99999999999999" y="260" width="120" height="60" as="geometry" />
        </mxCell>
        <mxCell id="xoQxYvgc1eyN9p1Y89sl-10" value="" style="endArrow=diamondThin;endFill=1;endSize=24;html=1;rounded=0;exitX=0.5;exitY=1;exitDx=0;exitDy=0;entryX=1;entryY=0.5;entryDx=0;entryDy=0;" parent="1" source="wEqpazZtr3Mc7dN9a1HU-9" target="xoQxYvgc1eyN9p1Y89sl-6" edge="1">
          <mxGeometry width="160" relative="1" as="geometry">
            <mxPoint x="30" y="120" as="sourcePoint" />
            <mxPoint x="-49" y="120" as="targetPoint" />
          </mxGeometry>
        </mxCell>
        <mxCell id="xoQxYvgc1eyN9p1Y89sl-11" value="" style="endArrow=diamondThin;endFill=1;endSize=24;html=1;rounded=0;exitX=0.5;exitY=1;exitDx=0;exitDy=0;entryX=0.5;entryY=0;entryDx=0;entryDy=0;" parent="1" source="wEqpazZtr3Mc7dN9a1HU-9" target="xoQxYvgc1eyN9p1Y89sl-8" edge="1">
          <mxGeometry width="160" relative="1" as="geometry">
            <mxPoint x="40" y="130" as="sourcePoint" />
            <mxPoint x="-39" y="130" as="targetPoint" />
          </mxGeometry>
        </mxCell>
        <mxCell id="xoQxYvgc1eyN9p1Y89sl-12" value="" style="endArrow=diamondThin;endFill=1;endSize=24;html=1;rounded=0;exitX=0.5;exitY=1;exitDx=0;exitDy=0;entryX=0.5;entryY=0;entryDx=0;entryDy=0;" parent="1" source="wEqpazZtr3Mc7dN9a1HU-9" target="xoQxYvgc1eyN9p1Y89sl-9" edge="1">
          <mxGeometry width="160" relative="1" as="geometry">
            <mxPoint x="50" y="140" as="sourcePoint" />
            <mxPoint x="-29" y="140" as="targetPoint" />
          </mxGeometry>
        </mxCell>
        <mxCell id="xoQxYvgc1eyN9p1Y89sl-13" value="" style="endArrow=diamondThin;endFill=1;endSize=24;html=1;rounded=0;exitX=0.5;exitY=1;exitDx=0;exitDy=0;entryX=0.5;entryY=0;entryDx=0;entryDy=0;" parent="1" source="wEqpazZtr3Mc7dN9a1HU-9" target="xoQxYvgc1eyN9p1Y89sl-7" edge="1">
          <mxGeometry width="160" relative="1" as="geometry">
            <mxPoint x="60" y="150" as="sourcePoint" />
            <mxPoint x="-19" y="150" as="targetPoint" />
          </mxGeometry>
        </mxCell>
        <mxCell id="xoQxYvgc1eyN9p1Y89sl-14" value="" style="shape=stencil(lZ3JkiQ3kkS/pq4h2Jdzz8x/UITFJqU5LEqRPcvfDzDsiMhU9XjIvHExy3CHAwZb1NS+5L/98fMPv3/9ksIff37/9o+v//3Lj3/+/CX/25eUfvnt56/ff/lz/dOX/O9f8t9++vb969+/f/vnbz/+9e+//7Al9z/957f/2n/hf/7Sq/kW+tZK4X//+i/pFsv//4f/+Ev+119+eyufbn2ofEL5an8/onyuIv+vB3wlH4PK0/PE20jv5ONtNpSvQeUDyscu8oPeN9yG/v1Ofz/c8hT5BvJl3mYV+TJRvujzZ5If9+V7yieWL7r+keT7bejzR3rffksqH0i+3dr75wm3Cd+r1NvsIk/fd8nnKPId9mcpt6Z/v8F5XPIhiHwdIJ9vuag8PX+6tSnypaJ8qCpP6x91P6wNDue9BD2/4W4wXsknXX+Sz/N+nN7Iw/ov+WDPQ/Jr/+v6o7zt/6N8+pT82v+flP/c+9b75/+gfLl13f8H+fipv59vxfYDyae7Of6gfFR7eJRP+TPyj+P6Mfk0P7ee6ZP7OY27uf+gfFd/4CDfbmN8Tj7Z88P9nuqt2vOD/UzF7X8B+7nksz5/oefPbt8K2MMln/TvV7C3yz2y/VDBHi55syeN3ne5L7qfGz3/2v96vv71B67lg9+PHfyH9b+j2tsBzxPn/fp84w/A/lny4f15jPcL8Fp+3K/PN/4M+ANx2X/19xJ83yWf1Z9MsJ9jU/sW8bws+TBEnvyBWPW+Ww417P9Y7p/zjX9Lf3/Zf/U/O33ffKtZ5Mnfi+k238sn/r4X8Uui72vxSEL7s+Szylf6Xmu7N5HvtP7L3Oj7Tnr+oPs/Y/w479bjKU7bbao1z/fr41J83EYRcTIO6yy+38sFY8ehpqTcEjxMvwcGT3HytLsGmuUeab8QF7+23gKse7t/xad4BjNrXmG9NRSXS67eo84X4vH9w7R7kHQd8+pXbfeY5IV4fb/jO0aMVS/QfrcQL8Rlv/fbpPj1ftru4gOv86LR9zj8dTkeE41rVt9lnV5amqwPv+QpObEO5/vH2dYKn0fvqoTBera7J+FOSOo7LutPyYykvkUsuD5J7cfz9nohL1tt344oL7HNun0jGfv7VfZGfpDxVl9teQ8F/76crOXNBLqsNPZb8rR/ouVuJlqpaOsz7zv8Uj7o/j84s0ENz8GZCrqe+4uAHQx3o/qQT+jshPvpfsjzfg66P5fBiPj8kovZ0Q7KZ/EtKibDgvkuDfdD0NhyGVtKdob7ffyQH2gPg+63bT/x+SVWX9E4nV/LPa1on6x/0Fgop9PfF/mMwZzLF0wW+vNXTEYG89bW9+X1fL/+uaP9DGo/87hnx17tN3n+ic6s7efCyeOguaSd/QT7Ge7W9SGfMfgL5hKu88v24f16lor3RdDcR2novJu9Ksu1AvtssXrh+yJoLLqrCyz/fr+VeRv4POLPVE5OLHnxgrl4suTff99dzcL9I7mYmk/rY/Jsb1W+HOyDylcs5rh8wyDkSp5iHJfvdw/zg/LjlnD/Sy2zTgwAg+Ymljw/v0SALWBsEe679yEfD88vsX1L9+jklfxUeUoGBM19tIzJnnA/rQ95tldRc81Lnv3VIO9b7x7OK/9Q1r9h8dlqt0u+4/PL/dg6J8/uX/ONPPmrUe+vNjjZo7mnNtGem3++5Kk4GTV32QMG7g9r+UaeiudRc3Od7W3UWkJPh3hEkk+d/e1493Ye8vnusbySnypP95HFX71gcSCqver1FvDvS/zSOY3zgDY85NvhfeW890e15kU8K+e3sz1Pd+vxkB+4n61WseQ5Hpfz0uc9+/kq3n8vPwLut6T+2OD8ydqN79dnRIx/rZaz5CfKSz5kpMP6y/cdGf09wxItebKfWXP3o3BxXr/vkqfijGEdRsX0cdbc92gITrF815Infyyr/Rkdi4f5Hj29kaf7Iqv/MAbGs1mxQWOiPSmafxscLxeNl5c8+fNF76N5AINorW4G9GeK2s95ABPdk69v5Mn/qfq+S74TuEzvx8nFparnfclTfrXpeVzyDc57s/VPaE+axkczY7GrawFlyR9KIvb3yZ53tVdz7Viu/xSVJ7DS0Pzqkqf8xtT8wOR82tQizVw76lCs66qADlO8n+83CujxRYXHLYVJj5TUJ54N74ylIADIpUBltWcO/40CWdGloMe4nWrQalfa/Wa+VqjqqCwFrEJXtexLAWEJTUOHpYDfoWnsOTvGhhs40E2BnOl+f4A3CghlGApd2goHbMUwBXqkqWXLpUBoiZ1RtHdIDD+Rcv1WIBcwmg3o7NNF262di1bJdmvHW2q7XfalKS2x/RD7BbpHLi7yzoW6anap482569H2DoO+dNPaw1ZgIJleJh2P6K5N2DsQtMShc1uBlnVoPuakMDVA3grkwIe7v/txBT8PVPLaFRB/B/JpkzkxA5N0jtjcCvQLFiYsBQxz/EIZHCcUs0sD77j8QGe8UaDM0oblmgIZgey+G9fKcjdfY6ARyMP20lIAU5ndvRp4i26str001YNKsDtu4C266z/yDhMz3CXatTtxL5WkOa850Ycu2TyBiUm4UjTLOif6S0vB34HSrKVqXLsUqM5QmhmBeS9FXSv0i5emTNYuNNmHo1Rfcdt6UDBg9VagYM+qbSeFaI7uQSHZxX5U0IDjoJDt2j0oFHN/DgruSh8Vhm8NUmiKYjkpdHMSjwrqGR8Uhhmyg8LUysBZQa8sVmhBc5EnhWhX1kEh3S3pxxX65x4pW8AxOf9RFGAwJyYMWzXnZGJGdSkM296U8m/tYmtQjrT1ixNHRcQ2Lk5cpJcedz/47aUI90OblsfhOms34MlkIEA3pNbhYu/xwpshR/dZWXqrQO9gjXMnhWxn+qig1vugUBQ/dlKolrA7KvTPKTQtwZwV9J4eWFPcJSZbVipS9XERcJBXuRTcu6cydp+WJ+Y61VJQj2xgeDwMmbQVwOcbVoqfA92fpaCewEAXbiQLwLk4sRSm/QJV50bW1s0dNIERGFaf2GEZ/ULRAsscnGCuiqjc0S59uHqR/aG9NJqd6Y6YptEvkmp0ZY2rvAbdQGPck3Rv03asIDiu2dAYj6lAz8ktAcMPEOeMd+EpqwLdcdNvoMq1AfeXKsZxS0ET5eXu+l4rJFslLq8uBcEjzIz4pvW/9Utn/NLrf+teShhaTis5HkpqS0FqsjOir7FLMvJIAY3A/kxWNcW9VHVZB5vKvdXeG4F1BvE7NDUzyyyQmdnlCa9000t3bXsZDA3caXF5h4LWe1shAQNwr9cz4ftQSHzihlITrEuM4Dn7NpB6d0C7tG+0oApUUH/eyneFddVTDeXp7DwU+MranrZhbrDjbipIfLlc1FE8pxqyzijxZ8TzUOC2mTn1jtuuL7+DAr0y3tNbwZBkh2WVK6tHtq1Tg9cesNdmTi26NM6RLQU5D419vguFjvCVCwUuQl4qEOBiv7QgVCsmyqdl4VYMf1pWaSbMp90qcdzOQxz2kqF4D6sklq8xLGUfIFE4XFlTr6zKSYRtBAQpz32Lzyz3Q6Fja8k0nonKLtyOqQR8XdEzfhYPHgrlZL216ZX7gbe5l3c4ND8PrYvWhLmZOTTvXSMiVHYhSh4pnG5RCTieie2X125TBVylrieucC1rBzDSVtMRpLLr3VMVCOe9Axhp/G5YsJhWfyiNL/au0MZSMcraDpb17hAW7In/eCiUk1cpwevuJqJHMiexZMwJTMtV7mIV7damB6gcXLh20XFFCOWNJZKtEdl6N62hFMbgbmddvnRAYMETQPVGgVCOs2qNfbexcYQiFfDMOM1pJDj54IZW7SzNA5G+O2jqqlD4F+TE7Xoy7aWq3yF3Pg9F0dBLgar406jZcuP4oeg9vRTwFi3WcNn4O2TdS7kiDGYalCdXXqWsmPelkPiRJOuQKwLPZtZoN3MX0DQY+8ZX0C8kvdiXAp64pGYmcyPTtE6FjRGhrRHtHTK2Bsyoyc3MvVjTiGLywRhbCjgz+ndau3tOmHqcwfZSwuLXUhBjnBOWpja+XFYpYjlhTMW3ZuYbWgoCFspMkLkh9V0VCPU4hgZNOWD8MIaGx5k5JsewI8p97EtBSX4ChmWja7S7FMibGV1hMGli0WUpKJfA5BRw12bAQ7P/TqGZAnkCw/ylxIXU0bQumtiVXgpyP6TBX9rAEUsBd6vhKjdKkX9BOSYG9sAP49vZREkQKS4FuR8Sg0l3U1BQBcK3LoVuCkTCNYrWFDcdE61S0RzZUiBM4ih6oaSGYNKRlXcyNSTSG+YJJI6BdjrWFLAOlDXKStx+O6ycsPlEaJWSvTQ3eA2rcCTOL+0GOdkaBfGtI6nfuhQIczKS2tbdNkUHKKpt3X1c1LUSNcrajWt0oUTjUeG8hlePUzrVpyU3s3sx6TsEe4fDxe5cMBETgztTb7+AIBXL6D75eV4pqNUIaAQ2TsD4kCip1ocmc+JEY9yt/hAHpin6UORmZP6z3bHbVIEqfr0baRcnmXtXzzg2rDT1rsY4VrStS0FCy83bRb/QjNSdrUa3Kn48kAU2oxLjVrduvM0xo7O+oTxNFRJ9uGpM+YmX1dollwIeoGJc8wld6aUgufsYMTze/fdJFSjK6nZP7xY7WqVs25t7VpeCRCgxoAu3cWTG8ke+d8+au5/8REkz8dw1v5FwUsPH26Qbrd4BsJWs1Iyw0G60egOj0B4VZ8cucTdah4EJkG60egz52ZVGKVaih7Hkxa3q/L2MJo974rpd5txpuOS13sWHMhitCaZ7ulE+N0w1Nmu7fYRZr+Tl+zLrUZtWJkLcTrOCesXU0CZ5UbJWMqPNC2PoA2/SGWV3pfO75I0NlvZDMxehoNfful4DBe1V8wIU7p/WrSqBd3EzqEtBA93MnSgIpWlN8/+F8dnNaN3QzVzymptHl641vS8yuuIb8y4JXt7/VWl3uOu/2YgJZh1p1mKSsejULJ+QsY9tydvzE8Kg2YiAzPvTRl4w62PLCn7MmO3ztomM+LYlH/X7EpCxJe2ByGxvLQZn1sTmyXj0f5oBKxN2pDajwTqwZBgN2cOBupY3WrrE58XS6gnLUktec0t4/9Z5QSFPI7ms6zjheVzymhHEpOYm6dPvReexGrw4Ye/ghrro+1KJbJMM6vcllrZq91dixvGuQXrC+6hapy5jbL2/LTHLTbdMCctbNHyUb5+Ulz7Jo/znnr9qFJkQg7PklRYZWUCrNZElrENXozFK6H/uHkwdqUH3dbW2iIj2p1oRmiEW1TqYI6Kbq90vB1Yli2cPI/WcVh7v35oVqhP5PGZtdOSK4Za3kXpkb62AHtE/rNlyFpg6qlntG4+4qTaSKPL+zBrfRR75mI1WnkdWGoQhYjy75W0EIr+vyRPKY8vbSBze//a+eN9drCfFR1ffC+/3i/1wkLf9hvf7xX6mkvzVeaH49+o8Uj7k6rzjuJILe0LAiyt7hSNSL+whJfmv7O3hPH5O3kZQHs5v0Xj5cH6LJfj5/BYfmUV40005oOeXaiBL3uwJxXe1qv8Z2R9uvt8oH1iNti8idML9q6P80POO/kBXLpqI+Zztf+r6U3xUDe578Ge6jTnhkb9GI8hTaepQf+ngj9nYKWYtrsMKjTxyeer6J2RN270A6m8T62C1EXmJ/ZOpfAGJ8wOG+krMeGAsiDxCrRmNe+L8cFT7zPFCM24BnuLRLkbAUTzYksEkMD5tycbGcD7K6jsMym7Z40fy53d+Sfcz5jey5osO+Zbi34vII5qx1WUs/DfHAXN+yTpMecrDzk9qPpD8gVa1Js9NuM3i2YzxZjPAemZCkXaRD6T1bOoP81SjTYmi60P+drPZd9xY2rrnDwlv1rrmHw75autvYfxOsxHQ5VRPEf+zHOs1Onkw0f60LtfC9tNAJjyFpA39XoXXf2p+tWADRrP7jll5d/1Ourb4fFnHYOX9PxUSULHhtgeNjyquz66f6vOTf9UNa8XUB93G6jQGigSlHecG4x69nkv3UfcxGEwpExWGy1ONetT37Ugz4viBjvvf8Qkd4+tuYwUH+qsbXyGd9lzf97EE6M90q+8wWU23+P0AWsvGm4r+XreRv5P3T9b6+AlAYwyLm5ibYUYaAQcMCTdzk4TkPDa6G1NN5KTUpnqKqoCsR9bRFXnS8WYFqKpA0/x6tXGWibGG1rt3mPfZjYcy8sCW3gxQVrD/cNNVVVXAzWdzfTe5OL1DtyGkFdODS0GYXze5OH2HYfH8wQAPZTKLHSPKbgiT2Pk8GAVdHHznGEZmKRDXwZ4EI2eaaVaXgnilcZ5IvcStfs5DvFQYNr4xHfp8vDAcmYgpWKUx4hHdfCgSyvEEsmEjsw7FtBGtGMvV5w2Pl1/gcGhEe4eM/siG+AdVIIdz2IV7QPA8iWzeKGCDVrK9xJQqwzjgU+WGFJu6sL1aeumsKKRTb4Y3pNTTO+g434r3w+7CkWVt3NFlldMNJeRf0PaphrmWUQxbwWDIYW3OiamehjVSH9zb3dFlCmT5hl3sqfMqGQnqRrDSO1z1vaGZsYH0aWAOdDQ7cezk7klPUxXwHbpV+QdbDeOcOHUHdjP3E4FVo6tjvz1p7qHUl558PwxLxU2mMzSGlFPj6LBkXEBPYFh2IQc290aIlQN31k3N/+bAR9Q6iXLkHvugFcw9VoHZCXUSMteEl4J4ZDmibZ02izRzODCjZdkSkyMY7C4zTmxGdXR3Qzt38Wubc0arMZNmVnLGUHTarJac8QDNpHHcUkByBJvBlwtWo6ZF00uBnPWZ9VLMPLVykz42VUDKLUv453Ii2lDqAh6MuYkwTQE5HIsxpFSmZCzKB5ob+nyzatV3KSBzU7Uu/s5ETFa3ztwXvWlhjFIFv4N5Ankwb4Y1mWUmBZ7W0J4HJjM3246s0mTiyqbZ88zpotn0fiiBv3TT/o6lcOBVkgJJ4ezPtBEHS+HADSXBa0kYDsymznrh3r1p/lLhKtvmtzIF8simERuXzOa+a52tHClKxVSWgpWbC56xig7WtGTOUjj8glwohZtfn4O4Hgods8VOs1o6s+10K98M5ugyXtbCXPzTCKbLxJTXtIRUDexrDDWVlTFfT/LzhwKDLpz59Qlje6UgF8oTd/tKQfIaGxjFpI9aV6rsJE4Nyza0iM60d7Z1NvdTE7R1MP+hUcXWeSIQFeekHaz3VK+yMRx2k6A6Hyi/g5jKxmwKcyrAoHEH0VZw1lT+0mKMD7ysMQQFBR6oX681cMTlhQZ3zl68xpEiV6BgbR5XVmqJTK20FYSqOHIIYd04neFXTsLbDyyl1t/aDzyoxnjbuYNzWkds5zG0c2r2sbcTGbKOgu8nAlvxHnYVg28tOaV9ctw01McaAdkLpvUhDQb6TgMi7tw27SVDOg6GYk2DUu6sLbsb+g6FA15zyp75yA86lqMh3GI7x/ILPJ5iO/hFFXBZqwI6npxuLwMtYSSYHCFXG4twYBP3CZSRmYeNinJyZWczSzZVwK3h8464z3QarmDH/TwAQ9zveUg8RO30nQz12TmppAroAQWb2XQgEg42Srdxwczuhx2rUZ55XkzGxTyz8Qc86ZFfKST7BUpXemJ6hy2sIOiF2Zk+sNlk3GNFwQckIY2jZVvmwDZALwWd5h0VveN2FMIVNh3mzhNZR7IZyDyRdQ95+tRE1hGNG4ZjvxFtauDgol+wIzoZzTNtpPFEz7UbWf5h5msfF7MVkcfIEJ1bgUEhOgWHS0Hd2MQnezMXg9t4zODFaLijgg6fOyj4eLuDgg/QOyr42E1U8CGARwX/0qjggww54N2jEv3DMVxTPYF5wrP6gFVqwGpD/aU5T4jiaL9woGhxI0Bu6MaY2yohCPlqDC12QbgLN7kNwkCDz9jxWiFfGAGqQ/qA1Tch9isNbaU8adjYs6OGTaI9afiw2w9oKGLtpGEje48aNhX4AxrpkxqW+D9q2L79gIZC6U4aNgT6qGFzpo8aNsr6AxqKFj1p2EDuo4bN/D5p+Fjxo8bV5HLyiC5no6NCN0dzIkNOsXl0kydW7AnyQRWorFeK9vBNBpaUorX9ZyL3WsG62k4D4dOFuSUemOIDHSfmqEq8uDIoV7gHi9ilRHd9Njr8g6OZbR7dwVnOPhyUUU3ZUE3Pwsa1gtGwHwb+LgXdGjyON9eLSc3EMLLxDvZIlEbe0yMsLKJSfc4X03VpL+Wr8dSUfVkK2qXBY5xy1NrNswx3rRAuphwn+g5BGw3nQN83GTPVScHAYs+JXK8Ukn04VPDpulwt3XBP/wVY1tQutgaVJnc7mX1pKhhs6LD/ApyHJ0Hi2+wLbO9kLTmHOcob820ZJCpJ7B5q+wUyAinad+iY70zRMnk8qTkFS0Qw0WsKNs+6Y0IoTotyOqI4olVJDsOjo/WKbgUqA3bzZjpmtmO3O65j8LibV6YqUKUnWv5/5zvhAEVrsJ4dj+hu8bGXppbvaP1gk1Ec0cZD7LoJbQ1jkd5pZFqlZEeUaXqj+d87s01fOmrhZnKjaQw2TL1h6i96rvAwY1LbkCb3ONjwoMPMb8N87MIP5fLtLBS0Sd28N0ZAGbPg5NZyG2q4oZ3Uem83T2ZqC0uJMPVo1er8ZBBavRhXjlRa9n0P1ILmUyVcz2IRA/PZF7vUmOqq2KGPeC8Xc+YDUmt6EBY4vNDkxOAsXLby9CF8USaGMTDGM+jzGEidZ01Tg28/yy/vIVQon5LKY3yn98xz3tMLeUnvDR5KmvR8DcYVJfu+3Elnd8ySp9b1pGmkwdSvyWbQM5WTd9Lz+UpaNBkBu1CTJl4Gg9OSlkz2zBl8Huns7RwqR01h7unz5C/q/dUZO2odG52b26KNbWfshw1R3FUpfB5hDugVz3tU+9C5bzMqsHuPB2F5g3JRhBzVH3gWpF7JZ5UnoHnU+7cz9WI0VFZAiLZ1C3celRs16mtchIk6LbvxfWEJuDawjGTF6sZxbrwANFJSxtqvG3ePBgUbblAmrL81dbWKdbZgUNeCNS1jYtvcXbD+zjTDPQFBA7HGzeNWamoJv1dQ/7BFvH+D+hstIBVMUHtVmVPAuvaeXICv5GUSCGerXJ7Df5dveB6v5On+dfmK9tDlmYrK5TPe11fyRJ3k8kyNaJNzakR/MhgaPiDgx5ifCk9hDcYENjENYUyNhROFwRqfGKppYLnCTXdWHylMtmJttKVgKtWGEBaGXhvUYrdh4fPo5ByeWRj0vssTIfbBeuEGxu/Behj74T7Svs2GOPBgDboV4zVrEMgFqbZdnkeruDxTffrz81DKoP75HtTMz28MAGwfnJOA4gVjnttUZrw/33/fneHB/eOsJHxfJPn75bCf01B5QurZ5LEdoaO8lLyeZYWP2ecDFXMwpg2m+vdJMsx1YOjkyPY/6v6JE6mkon6vXR/A+E4BF51bggz+wtQlxuQXeX8ak19siBo2Jr/IpDnGJxAZsJ6MCZt7ApMOuo4Z4/d0wcCGZWhjso/YMJ41XxojAmGz+kuR97NNvpqY3ihOREjZBCMRGIwoUSwQ122L4jQ7T03QpWfKNZuZ1nhmiwVSGIdb031lhlUtsFUGZ/o8RZxfqJuA6V6tlYDZZ7ti2zjjaQ1U7EAO3ZF8voc+TEZcytDrgYmUp3qbmfu6lVY1c6eLT8WiUGtPwf0MC3q0anrC1EqMPpUswfmL0VnlsdaY1Hrw1IPNfalTG8geRJviFxkLUDR3zKnsaFOouEN+j8zW90VXoflUFyyJG4UFh0LRyBwCuxZda72BC+hDY9fAqUibahc4NW0o+3ACh4gvHrg0YLmwgKXM/Xl0PYnq4rl938jT8yS9JAJDtwzMHhgmZVOQuDvXfYuAoYTXVsMJIzVVnhhZNruiPj+Wrpr64gHPy75G7e/T83f11Q7yw88jyk/NHRzl+2eeZ7PC6fdF+ajgq6P81P2J8ua7H+Sz+gIHeZsqe5T/3Hqax3mQt4bLo7zExgd5A7Uf5cen5C/sP8rb1J6jfPvMehbLLR7lh60/hSsG9w0MHTE8ccBm7nKx/8kfKDYFj0vnxTjkAkILlnxTe0jtvaWqvxcYu18VX8qURaXp1OnA3Qc2dYtJyMqF/0NQqHKx/ykVsNtY9H1pakOZPgXs0FgzzT+kiNewgIepmlb7jByAW237MFUwaq6QeWJqVHt1mHJo2JGIqexq5AoRU+U1WSsUBvlLvpv8YaqjTXHlqYhRvy+l/q6mWFJeoBrDdkQo5p66aPHdJ6dw0vmqhhWLmAu7+vsUH13KH9bH4mX++zYV7jC1VvbzYWpe9int5M9XI1pl6OZZfv3D7z/8+fNf//LTL7/++sef37/94+vb///Tt+9f//792z9/+/Hxn/74+Yffv65/+z8=);lineShape=1;" parent="1" vertex="1">
          <mxGeometry x="-203.3128810683013" y="45.04541188441635" width="507.90045655723156" height="294.090940651633" as="geometry" />
        </mxCell>
        <mxCell id="xoQxYvgc1eyN9p1Y89sl-17" value="" style="endArrow=diamondThin;endFill=1;endSize=24;html=1;rounded=0;exitX=0.5;exitY=0;exitDx=0;exitDy=0;entryX=0.5;entryY=1;entryDx=0;entryDy=0;" parent="1" target="xoQxYvgc1eyN9p1Y89sl-16" edge="1">
          <mxGeometry width="160" relative="1" as="geometry">
            <mxPoint x="244.58999999999992" y="-71.95000000000005" as="sourcePoint" />
            <mxPoint x="569.52" y="-309.45" as="targetPoint" />
          </mxGeometry>
        </mxCell>
        <mxCell id="xoQxYvgc1eyN9p1Y89sl-18" value="" style="endArrow=diamondThin;endFill=1;endSize=24;html=1;rounded=0;entryX=0.5;entryY=1;entryDx=0;entryDy=0;exitX=1;exitY=0.5;exitDx=0;exitDy=0;" parent="1" target="xoQxYvgc1eyN9p1Y89sl-19" edge="1">
          <mxGeometry width="160" relative="1" as="geometry">
            <mxPoint x="304.5899999999999" y="-41.950000000000045" as="sourcePoint" />
            <mxPoint x="379.52" y="-59.44999999999999" as="targetPoint" />
          </mxGeometry>
        </mxCell>
        <mxCell id="xoQxYvgc1eyN9p1Y89sl-21" value="" style="endArrow=diamondThin;endFill=1;endSize=24;html=1;rounded=0;exitX=1;exitY=0;exitDx=0;exitDy=0;entryX=0.5;entryY=1;entryDx=0;entryDy=0;" parent="1" target="xoQxYvgc1eyN9p1Y89sl-20" edge="1">
          <mxGeometry width="160" relative="1" as="geometry">
            <mxPoint x="304.5899999999999" y="-71.95000000000005" as="sourcePoint" />
            <mxPoint x="365" y="-100" as="targetPoint" />
          </mxGeometry>
        </mxCell>
      </root>
    </mxGraphModel>
  </diagram>
</mxfile>
